<svg width="33" height="32" viewBox="0 0 33 32" fill="none" xmlns="http://www.w3.org/2000/svg">
<g clip-path="url(#clip0_4_527)">
<path d="M-5 0H38V32H-5V0Z" fill="#012169"/>
<path d="M0.0390627 0L16.4328 12.0667L32.7594 0H38V4.13333L21.875 16.0667L38 27.9333V32H32.625L16.5 20.0667L0.442188 32H-5V28L11.0578 16.1333L-5 4.26667V0H0.0390627Z" fill="white"/>
<path d="M23.4875 18.7333L38 29.3333V32L19.7922 18.7333H23.4875ZM11.125 20.0667L11.5281 22.4L-1.37187 32H-5L11.125 20.0667ZM38 0V0.2L21.2703 12.7333L21.4047 9.8L34.6406 0H38ZM-5 0L11.0578 11.7333H7.02656L-5 2.8V0Z" fill="#C8102E"/>
<path d="M11.1922 0V32H21.9422V0H11.1922ZM-5 10.6667V21.3333H38V10.6667H-5Z" fill="white"/>
<path d="M-5 12.8667V19.2667H38V12.8667H-5ZM13.3422 0V32H19.7922V0H13.3422Z" fill="#C8102E"/>
</g>
<defs>
<clipPath id="clip0_4_527">
<rect width="33" height="32" fill="white"/>
</clipPath>
</defs>
</svg>
