<svg width="72" height="72" viewBox="0 0 72 72" fill="none" xmlns="http://www.w3.org/2000/svg">
<path d="M68.1704 18.0013C67.6535 17.1313 66.9386 16.3723 66.1525 15.9313L38.8674 0.661493C37.292 -0.220498 34.7201 -0.220498 33.1479 0.661493L5.85664 15.9313C4.2844 16.8103 3 18.9703 3 20.7313V51.271C3 52.153 3.32187 53.1309 3.83873 54.0009C4.35559 54.8709 5.07052 55.6299 5.85664 56.0709L33.1417 71.3408C34.714 72.2197 37.2889 72.2197 38.8612 71.3408L66.1463 56.0709C66.9324 55.6299 67.6473 54.8709 68.1642 54.0009C68.681 53.1309 68.9998 52.153 68.9998 51.271V20.7313C69.0091 19.8493 68.6903 18.8713 68.1704 18.0013ZM36.0014 57.3309C23.8692 57.3309 13.9995 47.761 13.9995 36.0011C13.9995 24.2412 23.8723 14.6713 36.0045 14.6713C39.8644 14.6785 43.655 15.6664 46.998 17.5367C50.3411 19.4069 53.1198 22.0941 55.0571 25.3302L45.537 30.6702C44.5691 29.0494 43.1793 27.7032 41.5065 26.7662C39.8338 25.8291 37.9366 25.334 36.0045 25.3302C33.0856 25.3326 30.2869 26.4576 28.2229 28.4583C26.1589 30.459 24.9983 33.1718 24.9958 36.0011C24.9999 38.8289 26.1608 41.5397 28.224 43.539C30.2872 45.5383 33.0841 46.6628 36.0014 46.666C37.9327 46.662 39.8291 46.1674 41.5017 45.2315C43.1742 44.2956 44.5645 42.9511 45.5339 41.3321L55.0602 46.672C53.1219 49.9086 50.3421 52.596 46.998 54.4663C43.6538 56.3365 39.8623 57.3242 36.0014 57.3309ZM58.0065 37.1861H55.5615V39.5561H53.1165V37.1861H50.6715V34.8161H53.1165V32.4462H55.5615V34.8161H58.0065V37.1861ZM67.1738 37.1861H64.7288V39.5561H62.2838V37.1861H59.8388V34.8161H62.2838V32.4462H64.7288V34.8161H67.1738V37.1861Z" fill="#00599C"/>
</svg>
