<svg width="72" height="72" viewBox="0 0 72 72" fill="none" xmlns="http://www.w3.org/2000/svg">
<g clip-path="url(#clip0_4_463)">
<path d="M41.949 33.234H48.306C48.4535 33.234 48.5949 33.1756 48.6995 33.0716C48.8041 32.9676 48.8632 32.8265 48.864 32.679V27.018C48.864 26.87 48.8052 26.7281 48.7006 26.6234C48.5959 26.5188 48.454 26.46 48.306 26.46H41.949C41.8018 26.46 41.6606 26.5185 41.5566 26.6226C41.4525 26.7266 41.394 26.8678 41.394 27.015V32.679C41.394 32.985 41.643 33.234 41.949 33.234ZM33.087 16.944H39.441C39.589 16.944 39.7309 16.8852 39.8356 16.7806C39.9402 16.6759 39.999 16.534 39.999 16.386V10.722C39.9982 10.5745 39.9391 10.4334 39.8345 10.3294C39.7299 10.2254 39.5885 10.167 39.441 10.167H33.087C32.9398 10.167 32.7986 10.2255 32.6946 10.3296C32.5905 10.4336 32.532 10.5748 32.532 10.722V16.386C32.532 16.692 32.778 16.944 33.087 16.944ZM33.087 25.089H39.441C39.5887 25.0882 39.7302 25.0292 39.8347 24.9247C39.9392 24.8202 39.9982 24.6787 39.999 24.531V18.87C39.9982 18.7225 39.9391 18.5814 39.8345 18.4774C39.7299 18.3734 39.5885 18.315 39.441 18.315H33.087C32.9398 18.315 32.7986 18.3735 32.6946 18.4776C32.5905 18.5816 32.532 18.7228 32.532 18.87V24.531C32.532 24.837 32.778 25.086 33.087 25.089ZM24.297 25.089H30.657C30.8039 25.0874 30.9443 25.0279 31.0477 24.9235C31.151 24.819 31.209 24.678 31.209 24.531V18.87C31.209 18.7228 31.1505 18.5816 31.0464 18.4776C30.9424 18.3735 30.8012 18.315 30.654 18.315H24.3C24.1528 18.315 24.0116 18.3735 23.9076 18.4776C23.8035 18.5816 23.745 18.7228 23.745 18.87V24.531C23.745 24.837 23.994 25.086 24.3 25.089M15.408 25.089H21.765C21.9125 25.0882 22.0536 25.0291 22.1576 24.9245C22.2616 24.8199 22.32 24.6785 22.32 24.531V18.87C22.32 18.7228 22.2615 18.5816 22.1574 18.4776C22.0534 18.3735 21.9122 18.315 21.765 18.315H15.408C15.2605 18.315 15.1191 18.3734 15.0145 18.4774C14.9099 18.5814 14.8508 18.7225 14.85 18.87V24.531C14.85 24.837 15.102 25.086 15.408 25.089ZM33.087 33.234H39.441C39.5885 33.234 39.7299 33.1756 39.8345 33.0716C39.9391 32.9676 39.9982 32.8265 39.999 32.679V27.018C39.999 26.87 39.9402 26.7281 39.8356 26.6234C39.7309 26.5188 39.589 26.46 39.441 26.46H33.087C32.9398 26.46 32.7986 26.5185 32.6946 26.6226C32.5905 26.7266 32.532 26.8678 32.532 27.015V32.679C32.532 32.985 32.778 33.234 33.087 33.234ZM24.297 33.234H30.657C30.8037 33.2332 30.9441 33.1744 31.0475 33.0704C31.1509 32.9664 31.209 32.8257 31.209 32.679V27.018C31.2094 26.9451 31.1954 26.8729 31.1679 26.8054C31.1404 26.7379 31.0998 26.6765 31.0486 26.6247C30.9973 26.5729 30.9363 26.5316 30.8692 26.5034C30.802 26.4751 30.7299 26.4604 30.657 26.46H24.297C24.1503 26.4608 24.0099 26.5196 23.9065 26.6236C23.8031 26.7276 23.745 26.8683 23.745 27.015V32.679C23.745 32.985 23.994 33.234 24.3 33.234M15.408 33.234H21.765C21.9122 33.234 22.0534 33.1755 22.1574 33.0714C22.2615 32.9674 22.32 32.8262 22.32 32.679V27.018C22.3204 26.9451 22.3064 26.8729 22.2789 26.8054C22.2514 26.7379 22.2108 26.6765 22.1596 26.6247C22.1083 26.5729 22.0473 26.5316 21.9802 26.5034C21.913 26.4751 21.8409 26.4604 21.768 26.46H15.408C15.26 26.46 15.1181 26.5188 15.0134 26.6234C14.9088 26.7281 14.85 26.87 14.85 27.018V32.679C14.85 32.985 15.102 33.234 15.408 33.234ZM6.648 33.234H13.008C13.1547 33.2332 13.2951 33.1744 13.3985 33.0704C13.5019 32.9664 13.56 32.8257 13.56 32.679V27.018C13.5604 26.9451 13.5464 26.8729 13.5189 26.8054C13.4914 26.7379 13.4508 26.6765 13.3996 26.6247C13.3483 26.5729 13.2873 26.5316 13.2202 26.5034C13.153 26.4751 13.0809 26.4604 13.008 26.46H6.648C6.50132 26.4608 6.36093 26.5196 6.25749 26.6236C6.15406 26.7276 6.096 26.8683 6.096 27.015V32.679C6.096 32.985 6.339 33.234 6.648 33.234ZM71.289 29.67C71.094 29.517 69.273 28.14 65.427 28.14C64.413 28.143 63.399 28.23 62.397 28.401C61.653 23.301 57.438 20.811 57.249 20.703L56.217 20.106L55.539 21.087C54.687 22.401 54.069 23.853 53.703 25.377C53.013 28.287 53.433 31.023 54.912 33.36C53.127 34.356 50.262 34.599 49.68 34.62H2.253C1.65754 34.6208 1.08661 34.8573 0.664998 35.2778C0.243385 35.6982 0.00537771 36.2685 0.00299958 36.864C-0.0525554 41.0185 0.650983 45.1482 2.079 49.05C3.714 53.334 6.144 56.49 9.309 58.422C12.849 60.591 18.609 61.833 25.134 61.833C28.083 61.842 31.023 61.575 33.924 61.035C37.9525 60.2949 41.829 58.8865 45.393 56.868C48.333 55.167 50.973 53.004 53.223 50.46C56.979 46.206 59.217 41.469 60.882 37.26H61.545C65.661 37.26 68.19 35.613 69.585 34.233C70.512 33.354 71.235 32.283 71.706 31.095L72 30.231L71.289 29.67Z" fill="#2496ED"/>
</g>
<defs>
<clipPath id="clip0_4_463">
<rect width="72" height="72" fill="white"/>
</clipPath>
</defs>
</svg>
