<svg width="72" height="72" viewBox="0 0 72 72" fill="none" xmlns="http://www.w3.org/2000/svg">
<g clip-path="url(#clip0_4_451)">
<path d="M72 55.764C70.9521 56.1603 69.7954 56.1595 68.7481 55.7615C67.7008 55.3636 66.8353 54.5962 66.315 53.604L55.965 39.291L54.465 37.29L42.456 53.622C41.967 54.5726 41.1484 55.3125 40.1535 55.7034C39.1586 56.0943 38.0553 56.1094 37.05 55.746L52.524 34.986L38.13 16.233C39.165 15.86 40.2969 15.8551 41.3351 16.219C42.3733 16.5829 43.2544 17.2935 43.83 18.231L54.558 32.721L65.346 18.291C65.8388 17.3574 66.6575 16.6374 67.6465 16.2679C68.6355 15.8984 69.7257 15.9052 70.71 16.287L65.124 23.7L57.558 33.549C57.3479 33.7364 57.1797 33.9661 57.0646 34.2231C56.9495 34.4801 56.89 34.7584 56.89 35.04C56.89 35.3216 56.9495 35.5999 57.0646 35.8569C57.1797 36.1139 57.3479 36.3436 57.558 36.531L71.97 55.767L72 55.764ZM0.00599975 34.728L1.266 28.503C4.728 16.194 18.84 11.073 28.548 18.693C34.233 23.16 35.652 29.484 35.373 36.612H3.348C2.829 49.341 12.015 57.027 23.76 53.1C25.664 52.4147 27.3682 51.2677 28.7201 49.7619C30.0719 48.2562 31.0291 46.4386 31.506 44.472C32.127 42.474 33.15 42.132 35.028 42.708C34.715 45.1451 33.8535 47.4796 32.5082 49.5358C31.1629 51.5919 29.3688 53.3162 27.261 54.579C23.7793 56.4835 19.7845 57.2383 15.8479 56.7356C11.9113 56.2329 8.2344 54.4984 5.343 51.78C2.48409 48.5622 0.756228 44.4975 0.423 40.206C0.423 39.501 0.183 38.841 0.0209997 38.208C0.00639584 37.0491 -0.000604311 35.89 -2.50791e-07 34.731L0.00599975 34.728ZM3.387 33.87H32.349C32.169 24.642 26.346 18.096 18.579 18.036C9.933 17.916 3.747 24.318 3.366 33.828L3.387 33.87Z" fill="#ffffff"/>
</g>
<defs>
<clipPath id="clip0_4_451">
<rect width="72" height="72" fill="white"/>
</clipPath>
</defs>
</svg>
