<svg width="72" height="72" viewBox="0 0 72 72" fill="none" xmlns="http://www.w3.org/2000/svg">
<path d="M47.556 26.943H33.792V0H47.556C54.984 0 61.026 6.042 61.026 13.47C61.026 20.898 54.984 26.943 47.556 26.943ZM38.205 22.53H47.556C52.551 22.53 56.613 18.465 56.613 13.473C56.613 8.481 52.548 4.416 47.556 4.416H38.205V22.53ZM38.205 26.943H24.444C17.016 26.943 10.974 20.901 10.974 13.473C10.974 6.045 17.016 0 24.444 0H38.208V26.943H38.205ZM24.444 4.413C19.449 4.413 15.387 8.478 15.387 13.47C15.387 18.462 19.449 22.53 24.444 22.53H33.795V4.413H24.444ZM38.205 49.47H24.444C17.016 49.47 10.974 43.428 10.974 36C10.974 28.572 17.016 22.53 24.444 22.53H38.208V49.47H38.205ZM24.444 26.943C19.449 26.943 15.387 31.008 15.387 36C15.387 40.992 19.452 45.057 24.444 45.057H33.795V26.943H24.444ZM24.516 72C17.049 72 10.971 65.958 10.971 58.53C10.971 51.102 17.013 45.06 24.441 45.06H38.205V58.383C38.205 65.892 32.064 72 24.516 72ZM24.444 49.47C22.0429 49.4732 19.7411 50.4284 18.0432 52.1262C16.3454 53.8241 15.3902 56.1259 15.387 58.527C15.387 63.522 19.482 67.584 24.519 67.584C29.634 67.584 33.798 63.456 33.798 58.38V49.47H24.444ZM47.556 49.47H47.262C39.834 49.47 33.792 43.428 33.792 36C33.792 28.572 39.834 22.53 47.262 22.53H47.556C54.984 22.53 61.026 28.572 61.026 36C61.026 43.428 54.984 49.47 47.556 49.47ZM47.265 26.943C42.27 26.943 38.208 31.008 38.208 36C38.208 40.992 42.273 45.057 47.265 45.057H47.559C52.554 45.057 56.616 40.992 56.616 36C56.616 31.008 52.548 26.943 47.556 26.943H47.265Z" fill="#F24E1E"/>
</svg>
