<svg width="72" height="72" viewBox="0 0 72 72" fill="none" xmlns="http://www.w3.org/2000/svg">
<g clip-path="url(#clip0_4_461)">
<path d="M70.638 32.7902L39.201 1.35622C37.389 -0.452784 34.455 -0.452784 32.637 1.35622L26.124 7.88122L34.404 16.1612C36.339 15.5162 38.541 15.9512 40.071 17.4842C41.619 19.0292 42.045 21.2582 41.385 23.1842L49.359 31.1642C51.294 30.4952 53.52 30.9302 55.059 32.4692C57.222 34.6292 57.222 38.1212 55.059 40.2812C52.902 42.4382 49.416 42.4382 47.259 40.2812C45.642 38.6582 45.237 36.2702 46.047 34.2932L38.58 26.8652V46.4402C39.108 46.6982 39.606 47.0492 40.044 47.4842C42.183 49.6472 42.183 53.1332 40.044 55.2842C37.887 57.4472 34.377 57.4472 32.217 55.2842C30.06 53.1272 30.06 49.6472 32.217 47.4902C32.763 46.9502 33.378 46.5422 34.032 46.2722V26.5052C33.381 26.2322 32.76 25.8392 32.232 25.3022C30.597 23.6672 30.204 21.2762 31.044 19.2752L22.908 11.1002L1.35 32.6432C-0.45 34.4582 -0.45 37.3952 1.35 39.2102L32.79 70.6412C34.602 72.4532 37.536 72.4532 39.348 70.6412L70.638 39.3512C72.453 37.5422 72.453 34.6052 70.638 32.7902Z" fill="#F05032"/>
</g>
<defs>
<clipPath id="clip0_4_461">
<rect width="72" height="72" fill="white"/>
</clipPath>
</defs>
</svg>
