<svg width="72" height="72" viewBox="0 0 72 72" fill="none" xmlns="http://www.w3.org/2000/svg">
<g clip-path="url(#clip0_4_467)">
<path d="M34.713 34.539H0C0.00117609 36.5975 0.40834 38.6355 1.19818 40.5365C1.98802 42.4374 3.14503 44.1639 4.60297 45.6171C6.06092 47.0703 7.79116 48.2217 9.69465 49.0053C11.5981 49.789 13.6375 50.1895 15.696 50.184H22.086V56.355C22.086 60.5033 23.7335 64.4817 26.6662 67.4156C29.5989 70.3494 33.5767 71.9984 37.725 72V37.554C37.725 36.7544 37.4073 35.9875 36.8419 35.4221C36.2765 34.8567 35.5096 34.539 34.71 34.539H34.713ZM51.882 17.271H17.208C17.2088 21.4198 18.8575 25.3984 21.7914 28.3317C24.7253 31.2651 28.7042 32.913 32.853 32.913H39.24V39.087C39.2432 43.2351 40.8926 47.2123 43.826 50.1451C46.7594 53.078 50.7369 54.7266 54.885 54.729V20.274C54.885 19.4776 54.5686 18.7137 54.0054 18.1506C53.4423 17.5874 52.6784 17.271 51.882 17.271ZM69.039 0H34.365C34.365 4.14931 36.0133 8.12868 38.9473 11.0627C41.8813 13.9967 45.8607 15.645 50.01 15.645H56.397V21.816C56.4002 25.956 58.0441 29.9259 60.9687 32.8561C63.8933 35.7863 67.86 37.4379 72 37.449V3.015C72.0032 2.2237 71.694 1.46311 71.1396 0.898539C70.5851 0.33397 69.8302 0.0110606 69.039 0Z" fill="#0052CC"/>
</g>
<defs>
<clipPath id="clip0_4_467">
<rect width="72" height="72" fill="white"/>
</clipPath>
</defs>
</svg>
