<svg width="72" height="72" viewBox="0 0 72 72" fill="none" xmlns="http://www.w3.org/2000/svg">
<path d="M6.528 8.442C7.227 9.702 7.956 10.782 8.718 11.712C9.459 11.673 12.114 13.08 12.654 13.281C14.178 14.127 15.843 15.171 17.355 16.179C18.87 17.19 20.235 18.165 21.171 18.879C21.639 19.239 22.005 19.533 22.227 19.737C22.3144 19.8095 22.3929 19.8921 22.461 19.983C22.474 20.0024 22.4841 20.0237 22.491 20.046C22.4986 20.0691 22.5015 20.0935 22.4994 20.1177C22.4974 20.142 22.4904 20.1655 22.479 20.187C22.4672 20.2101 22.4502 20.2303 22.4294 20.2459C22.4086 20.2615 22.3845 20.2721 22.359 20.277C22.3312 20.2821 22.3028 20.2821 22.275 20.277C22.104 20.277 21.666 19.788 20.784 19.032C18.1574 17.0126 15.3915 15.181 12.507 13.551C10.995 12.711 9.642 11.925 8.718 11.712C8.36049 11.659 7.9964 11.6339 7.635 11.637C6.8316 11.6523 6.03491 11.7867 5.271 12.036C6.753 13.278 8.001 14.184 9.111 14.883C7.401 14.337 5.565 14.253 3.405 15.282C4.983 16.269 6.306 16.983 7.467 17.517C10.776 17.985 14.241 19.605 17.139 21.444C18.588 22.365 19.851 23.289 20.796 24.045C21.267 24.42 21.666 24.756 21.966 25.029C22.26 25.302 22.488 25.491 22.557 25.659C22.647 25.878 22.5 25.971 22.305 25.833C22.209 25.767 22.041 25.527 21.753 25.26C21.3803 24.9199 20.9961 24.5927 20.601 24.279C19.665 23.529 18.414 22.623 16.974 21.708C14.295 20.022 10.278 18.669 7.455 17.517C5.649 17.187 3.78 17.337 1.737 18.687C3.084 19.287 4.248 19.734 5.283 20.076C7.719 20.076 10.959 21.171 14.088 22.842C17.214 24.51 20.208 26.484 21.657 28.164C21.855 28.395 21.609 28.542 21.435 28.374C19.875 26.889 17.046 24.762 13.941 23.106C12.024 22.095 7.482 20.076 5.283 20.076L5.295 20.082C3.594 20.142 1.905 20.667 0.258 22.23C1.689 22.584 2.913 22.818 3.99 22.977C2.67 23.241 1.38 23.877 0.123 25.143C1.095 25.353 1.971 25.509 2.769 25.629C1.785 26.106 0.852 26.841 0 27.969C1.119 28.059 2.109 28.095 3 28.101C1.92 28.599 0.912 29.391 0.012 30.651C1.611 30.732 2.952 30.726 4.104 30.66C2.838 31.176 1.668 32.052 0.669 33.564C2.655 33.594 4.233 33.498 5.553 33.336L5.535 33.342C8.505 33.123 12.426 33.723 14.421 35.883C14.577 36.054 14.349 36.237 14.205 36.105C12.261 34.365 9.726 33.624 5.535 33.342H5.529C3.9 33.789 2.391 34.68 1.149 36.564C2.757 36.588 4.095 36.525 5.247 36.414C3.84 37.185 2.628 38.346 1.83 40.332C3.279 40.056 4.494 39.762 5.541 39.456C4.452 40.251 3.537 41.364 2.922 43.038C3.894 42.822 4.758 42.6 5.535 42.375C4.76289 43.3288 4.23467 44.4563 3.996 45.66C5.052 45.27 5.961 44.898 6.774 44.529C6.003 45.429 5.415 46.572 5.124 48.099C6.609 47.502 7.821 46.935 8.838 46.395C7.908 47.394 7.209 48.675 6.933 50.463C8.42444 49.819 9.86985 49.0732 11.259 48.231C9.96 49.317 8.967 50.76 8.622 52.992C10.986 51.948 12.639 51.003 13.923 50.127C13.371 51.243 13.077 52.545 13.218 54.171C15.504 52.419 16.947 51.003 18.024 49.752C17.952 50.559 18.015 51.432 18.255 52.404C19.893 49.587 21.522 48.768 23.205 47.826C20.52 49.179 20.919 50.196 20.919 51.378C22.968 49.218 25.824 46.932 26.7 45.498C25.53 47.253 25.059 48.918 24.75 50.388C18.771 53.55 15.129 54.375 11.046 55.638C12.63 56.22 14.325 56.787 13.623 57.594L11.751 59.46C12.948 59.088 14.166 58.56 15.225 59.283C15.12 60.264 13.884 60.759 12.825 61.332C14.688 60.66 15.093 60.816 15.585 60.972C15.828 62.151 14.976 62.781 14.421 63.558C19.116 59.988 25.239 57.168 29.553 55.992C35.619 53.949 43.443 51.825 45.57 46.647L47.706 38.106L47.694 38.118C47.361 38.016 46.956 37.929 46.644 37.719C46.3259 37.4984 46.0805 37.1883 45.939 36.828C45.183 37.023 44.619 36.918 44.259 36.564C43.908 36.213 43.758 35.676 43.65 35.091C43.041 35.214 42.564 35.139 42.249 34.86C41.901 34.557 41.739 34.08 41.655 33.528L41.631 33.411L41.742 33.366C42.0823 33.2394 42.3913 33.0409 42.648 32.784C42.7343 32.6964 42.7984 32.5894 42.8349 32.472C42.8714 32.3546 42.8794 32.2301 42.858 32.109L42.84 31.998L42.93 31.95C43.419 31.671 43.965 31.443 44.214 31.11C44.2819 31.0213 44.3311 30.9197 44.3584 30.8114C44.3857 30.7031 44.3907 30.5903 44.373 30.48C44.2999 30.0928 44.141 29.7268 43.908 29.409L43.827 29.289L43.947 29.208C44.301 28.938 44.679 28.671 44.871 28.428C44.967 28.308 45.015 28.2 45.012 28.098C45.012 27.999 44.967 27.888 44.82 27.747L44.526 27.465L44.931 27.483C45.57 27.513 46.116 27.462 46.545 27.324C46.8788 27.2273 47.1691 27.0186 47.367 26.733C47.346 26.634 47.307 26.544 47.307 26.439C47.324 26.0657 47.4842 25.7133 47.7544 25.4552C48.0245 25.197 48.3838 25.053 48.7575 25.053C49.1312 25.053 49.4905 25.197 49.7606 25.4552C50.0308 25.7133 50.191 26.0657 50.208 26.439C50.208 26.571 50.163 26.691 50.13 26.814C50.661 26.856 51.171 26.844 51.651 26.634L51.657 26.637L51.762 26.598C52.47 26.343 52.764 26.733 53.922 25.23C48.852 18.66 41.451 23.325 38.991 30.096C38.361 31.824 34.776 31.83 33.738 30.096C29.628 21.246 17.148 11.892 6.528 8.442ZM9.108 14.877C11.826 15.756 14.847 17.223 17.418 18.861C18.708 19.68 19.857 20.49 20.76 21.198C21.663 21.906 22.458 22.617 22.62 22.923C22.782 23.229 22.62 23.343 22.374 23.103C22.131 22.869 21.465 22.143 20.574 21.444C19.68 20.742 18.534 19.929 17.256 19.113C14.931 17.643 11.31 16.239 9.108 14.877ZM4.008 22.977C7.356 23.019 11.058 24.318 14.31 25.968C15.933 26.793 17.379 27.669 18.495 28.458C19.611 29.247 20.511 30.03 20.697 30.429C20.88 30.831 20.637 30.819 20.436 30.594C19.8012 29.8942 19.0932 29.2646 18.324 28.716C16.9989 27.7935 15.6104 26.9655 14.169 26.238C11.28 24.792 7.317 23.457 4.008 22.977ZM48.756 25.293C48.6059 25.293 48.4573 25.3226 48.3186 25.38C48.1799 25.4374 48.0539 25.5216 47.9478 25.6278C47.8416 25.7339 47.7574 25.8599 47.7 25.9986C47.6426 26.1373 47.613 26.2859 47.613 26.436C47.613 26.5861 47.6426 26.7347 47.7 26.8734C47.7574 27.0121 47.8416 27.1381 47.9478 27.2442C48.0539 27.3504 48.1799 27.4346 48.3186 27.492C48.4573 27.5494 48.6059 27.579 48.756 27.579C49.0591 27.579 49.3499 27.4586 49.5642 27.2442C49.7786 27.0299 49.899 26.7391 49.899 26.436C49.899 26.1329 49.7786 25.8421 49.5642 25.6278C49.3499 25.4134 49.0591 25.293 48.756 25.293ZM5.1 25.434C7.566 25.65 10.26 26.538 12.702 27.684C15.96 29.211 18.807 31.158 20.004 32.685C20.109 32.82 19.962 33.078 19.764 32.871C18.48 31.551 15.798 29.478 12.573 27.966C9.834 26.703 5.727 25.356 2.787 25.626C3.54 25.536 4.278 25.362 5.1 25.434ZM54.117 25.464C53.019 26.889 52.527 26.733 52.008 26.856C52.29 28.146 53.058 28.614 53.763 29.166L53.583 29.202C60.528 27.861 66.141 28.344 72 28.494L54.117 25.464ZM53.583 29.202H53.577L53.565 29.25L53.583 29.202ZM51.708 26.931C51.159 27.153 50.589 27.159 50.019 27.108C49.9002 27.3406 49.7199 27.5363 49.4978 27.6738C49.2757 27.8113 49.0202 27.8854 48.759 27.888C48.4849 27.8867 48.2167 27.8076 47.9857 27.66C47.7547 27.5124 47.5704 27.3022 47.454 27.054C47.2376 27.3146 46.953 27.5098 46.632 27.618C46.215 27.753 45.708 27.789 45.153 27.783C45.213 27.888 45.315 27.987 45.318 28.095C45.3127 28.288 45.2394 28.4728 45.111 28.617C44.892 28.893 44.544 29.127 44.226 29.361C44.487 29.784 44.637 30.141 44.673 30.447C44.7162 30.7475 44.6409 31.053 44.463 31.299C44.145 31.719 43.599 31.929 43.146 32.178C43.1647 32.471 43.0677 32.7597 42.876 32.982C42.6222 33.2381 42.3191 33.4402 41.985 33.576C42.066 34.044 42.207 34.425 42.447 34.638C42.705 34.866 43.08 34.947 43.722 34.779L43.887 34.737L43.917 34.902C44.016 35.523 44.181 36.057 44.478 36.351C44.778 36.648 45.21 36.756 45.987 36.516L46.134 36.471L46.182 36.615C46.332 37.041 46.542 37.284 46.809 37.461C47.07 37.641 47.55 37.797 47.883 37.902C50.277 35.295 52.458 32.586 53.535 29.322C52.86 28.791 52.017 28.308 51.708 26.931ZM3.018 28.089C6.513 27.849 9.867 28.677 12.624 29.967C15.384 31.257 17.598 32.784 18.546 33.888C18.771 34.149 18.489 34.248 18.33 34.104C16.578 32.5415 14.6109 31.2382 12.489 30.234C9.777 28.992 5.91 28.302 3.018 28.089ZM5.61 30.495C7.44 30.555 9.33 30.96 11.028 31.551C13.296 32.337 15.291 33.393 16.269 34.491C16.404 34.641 16.248 34.872 16.047 34.698C15 33.786 13.164 32.619 10.929 31.845C9.207 31.26 6.09 30.738 4.125 30.654C4.716 30.588 5.001 30.474 5.61 30.495ZM8.76 35.859C10.029 35.961 11.418 36.258 12.783 37.08C12.912 37.158 12.93 37.488 12.636 37.35C10.068 36.144 8.658 35.88 5.265 36.42C6.423 36.036 7.485 35.757 8.757 35.859H8.76ZM8.64 38.223C9.84 38.118 10.992 38.217 12.531 38.835C12.663 38.889 12.771 39.213 12.432 39.117C9.861 38.388 8.931 38.133 5.571 39.429C6.411 38.742 7.437 38.331 8.64 38.223ZM12.495 40.284C13.446 40.215 14.4 40.206 15.297 40.302C15.453 40.32 15.462 40.617 15.279 40.608C13.4348 40.5071 11.5852 40.6228 9.768 40.953C9.039 41.091 8.499 41.082 5.553 42.327C6.414 41.628 7.935 40.971 9.708 40.647C10.631 40.4781 11.5623 40.3579 12.498 40.287L12.495 40.284ZM16.335 41.754C16.632 41.763 16.521 42.066 16.353 42.063C14.169 42.033 12.441 42.459 10.728 42.948C9.37361 43.3766 8.05213 43.903 6.774 44.523C7.623 43.833 8.913 43.152 10.647 42.657C12.384 42.159 14.391 41.679 16.335 41.751V41.754ZM17.919 42.948C18.027 42.933 18.234 43.2 17.973 43.248C15.783 43.659 14.241 44.049 12.591 44.61C11.943 44.832 10.851 45.231 8.862 46.371C9.642 45.564 10.83 44.895 12.501 44.331C14.175 43.761 16.089 43.221 17.919 42.951V42.948ZM18.852 44.469C19.077 44.433 19.143 44.73 18.912 44.775C15.261 45.498 13.632 46.443 11.292 48.207C12.804 46.638 15.183 45.054 18.852 44.469ZM20.637 45.813C20.898 45.774 20.967 46.074 20.7 46.113C18.084 46.503 16.269 47.772 13.935 50.103C14.82 48.624 16.947 46.383 20.637 45.813ZM21.753 46.983C21.891 46.965 22.095 47.202 21.822 47.283C21.1143 47.488 20.4388 47.7909 19.815 48.183C19.269 48.537 18.915 48.783 18.024 49.704C18.357 48.969 18.912 48.402 19.65 47.934C20.391 47.463 21.18 47.055 21.753 46.983Z" fill="#008080"/>
</svg>
