<svg width="72" height="72" viewBox="0 0 72 72" fill="none" xmlns="http://www.w3.org/2000/svg">
<g clip-path="url(#clip0_4_473)">
<path d="M37.512 0C37.047 0 36.567 0.024 36.072 0.063C23.394 1.062 26.757 14.484 26.562 18.957C26.334 22.233 25.662 24.816 23.412 28.017C20.757 31.17 17.031 36.267 15.264 41.58C14.43 44.076 14.034 46.632 14.403 49.047C14.2662 49.1577 14.1538 49.2956 14.073 49.452C13.293 50.256 12.723 51.252 12.084 51.969C11.487 52.566 10.629 52.77 9.693 53.169C8.754 53.577 7.719 53.976 7.101 55.209C6.831 55.776 6.693 56.391 6.705 57.015C6.705 57.612 6.786 58.215 6.87 58.623C7.044 59.82 7.218 60.807 6.99 61.533C6.243 63.573 6.15 64.968 6.672 65.985C7.194 66.987 8.277 67.395 9.492 67.788C11.922 68.388 15.222 68.193 17.814 69.588C20.592 70.986 23.412 71.598 25.662 70.998C27.24 70.65 28.572 69.606 29.286 68.16C31.047 68.151 32.976 67.353 36.066 67.158C38.163 66.984 40.788 67.959 43.797 67.758C43.872 68.16 43.986 68.352 44.139 68.757L44.148 68.766C45.321 71.1 47.487 72.162 49.8 71.979C52.113 71.799 54.576 70.371 56.571 68.061C58.464 65.766 61.62 64.809 63.705 63.552C64.749 62.955 65.592 62.145 65.652 60.993C65.721 59.793 65.052 58.56 63.51 56.865V56.574L63.501 56.565C62.991 55.965 62.751 54.96 62.487 53.787C62.232 52.584 61.941 51.429 61.011 50.649H61.002C60.825 50.487 60.633 50.448 60.438 50.244C60.2702 50.1269 60.0724 50.0602 59.868 50.052C61.161 46.218 60.66 42.402 59.349 38.97C57.75 34.74 54.954 31.056 52.824 28.521C50.436 25.506 48.096 22.65 48.144 18.417C48.222 11.961 48.852 0.018 37.512 0ZM39.099 10.215H39.138C39.777 10.215 40.326 10.401 40.89 10.809C41.46 11.214 41.88 11.805 42.204 12.408C42.519 13.185 42.678 13.785 42.702 14.58C42.702 14.52 42.72 14.46 42.72 14.4V14.715C42.7134 14.6946 42.7094 14.6734 42.708 14.652L42.696 14.58C42.69 15.3091 42.5369 16.0294 42.246 16.698C42.1059 17.0741 41.8882 17.4166 41.607 17.703C41.522 17.655 41.4338 17.6129 41.343 17.577C41.031 17.442 40.749 17.385 40.491 17.178C40.2772 17.0928 40.0564 17.0266 39.831 16.98C39.981 16.8 40.269 16.581 40.38 16.386C40.539 16.002 40.626 15.594 40.644 15.18V15.12C40.6508 14.7126 40.5889 14.3069 40.461 13.92C40.326 13.518 40.158 13.32 39.912 12.921C39.66 12.723 39.411 12.525 39.111 12.525H39.063C38.784 12.525 38.535 12.615 38.277 12.921C37.9921 13.1988 37.7808 13.5432 37.662 13.923C37.5027 14.3042 37.4113 14.7103 37.392 15.123V15.18C37.398 15.447 37.416 15.717 37.452 15.981C36.873 15.78 36.138 15.576 35.631 15.375C35.6007 15.1763 35.5827 14.9759 35.577 14.775V14.715C35.5534 13.9231 35.7072 13.1359 36.027 12.411C36.273 11.751 36.723 11.193 37.317 10.812C37.8298 10.4233 38.4555 10.2156 39.099 10.215ZM30.213 10.392H30.321C30.747 10.392 31.131 10.536 31.518 10.797C31.956 11.184 32.31 11.661 32.55 12.192C32.82 12.789 32.97 13.392 33.009 14.193V14.205C33.03 14.607 33.027 14.805 33.003 15.003V15.243C32.913 15.264 32.835 15.297 32.754 15.315C32.298 15.48 31.932 15.72 31.575 15.915C31.611 15.645 31.614 15.375 31.584 15.114V15.069C31.548 14.67 31.464 14.469 31.338 14.07C31.2445 13.7642 31.0728 13.4882 30.84 13.269C30.7661 13.2018 30.6794 13.1501 30.585 13.1171C30.4907 13.0841 30.3907 13.0705 30.291 13.077H30.228C30.015 13.095 29.838 13.197 29.67 13.473C29.4786 13.7053 29.3542 13.9853 29.31 14.283C29.2289 14.6064 29.2055 14.9415 29.241 15.273V15.318C29.277 15.723 29.352 15.918 29.481 16.32C29.619 16.722 29.775 16.92 29.979 17.124C30.009 17.151 30.039 17.178 30.081 17.196C29.871 17.367 29.73 17.406 29.553 17.604C29.4407 17.7033 29.3058 17.7733 29.16 17.808C28.8481 17.4325 28.572 17.0287 28.335 16.602C28.0514 15.9716 27.8934 15.2919 27.87 14.601C27.8203 13.9238 27.9018 13.2433 28.11 12.597C28.2752 12.0076 28.5647 11.4603 28.959 10.992C29.343 10.593 29.739 10.392 30.213 10.392ZM34.323 15.51C35.319 15.51 36.522 15.705 37.971 16.707C38.85 17.307 39.54 17.514 41.127 18.111H41.136C41.901 18.519 42.351 18.909 42.57 19.308V18.915C42.6777 19.1331 42.7376 19.3717 42.7459 19.6148C42.7542 19.8579 42.7106 20.1 42.618 20.325C42.249 21.255 41.07 22.254 39.429 22.851V22.857C38.625 23.262 37.926 23.856 37.104 24.252C36.276 24.657 35.34 25.128 34.068 25.053C33.6111 25.0767 33.154 25.0083 32.724 24.852C32.3917 24.6712 32.0693 24.4729 31.758 24.258C31.173 23.853 30.669 23.262 29.922 22.863V22.848H29.907C28.707 22.11 28.059 21.312 27.849 20.718C27.639 19.914 27.834 19.308 28.428 18.918C29.1 18.513 29.568 18.105 29.877 17.91C30.189 17.688 30.306 17.604 30.405 17.517H30.411V17.508C30.918 16.902 31.719 16.098 32.928 15.705C33.345 15.597 33.81 15.51 34.326 15.51H34.323ZM42.723 21.936C43.797 26.187 46.311 32.361 47.928 35.355C48.786 36.957 50.493 40.332 51.234 44.427C51.702 44.412 52.224 44.481 52.773 44.619C54.711 39.606 51.135 34.218 49.506 32.721C48.846 32.121 48.81 31.716 49.137 31.716C50.907 33.318 53.232 36.432 54.075 39.987C54.465 41.592 54.555 43.299 54.138 44.997C54.339 45.081 54.543 45.177 54.753 45.198C57.849 46.8 58.992 48.012 58.443 49.809V49.68C58.263 49.671 58.083 49.68 57.903 49.68H57.855C58.308 48.279 57.309 47.205 54.66 46.008C51.915 44.808 49.722 45 49.35 47.403C49.326 47.532 49.311 47.601 49.296 47.808C49.092 47.877 48.879 47.967 48.669 48C47.379 48.804 46.683 50.007 46.29 51.561C45.9 53.16 45.78 55.029 45.675 57.168V57.177C45.615 58.179 45.165 59.691 44.718 61.227C40.218 64.443 33.978 65.841 28.674 62.229C28.3411 61.6472 27.9359 61.1099 27.468 60.63C27.2444 60.2577 26.9663 59.9209 26.643 59.631C27.189 59.631 27.657 59.541 28.038 59.43C28.4694 59.2299 28.8069 58.8709 28.98 58.428C29.304 57.627 28.98 56.337 27.945 54.939C26.91 53.538 25.152 51.954 22.581 50.376C20.691 49.176 19.623 47.766 19.131 46.188C18.636 44.586 18.702 42.933 19.086 41.253C19.821 38.043 21.705 34.923 22.908 32.964C23.229 32.769 23.019 33.369 21.684 35.886C20.496 38.139 18.264 43.377 21.318 47.448C21.4334 44.4777 22.0912 41.5535 23.259 38.82C24.951 34.986 28.488 28.308 28.767 23.016C28.911 23.124 29.418 23.421 29.634 23.622C30.288 24.021 30.774 24.621 31.404 25.017C32.034 25.62 32.835 26.022 34.032 26.022C34.149 26.031 34.257 26.04 34.362 26.04C35.598 26.04 36.552 25.638 37.353 25.236C38.223 24.834 38.913 24.234 39.573 24.036H39.588C40.989 23.631 42.093 22.83 42.72 21.936H42.723ZM49.278 48.81C49.389 50.61 50.307 52.545 51.924 52.941C53.688 53.343 56.226 51.942 57.297 50.646L57.93 50.616C58.875 50.595 59.661 50.646 60.471 51.42L60.48 51.429C61.104 52.026 61.395 53.019 61.653 54.057C61.908 55.257 62.115 56.397 62.88 57.255C64.338 58.836 64.815 59.973 64.788 60.675L64.797 60.654V60.708L64.788 60.675C64.743 61.461 64.233 61.86 63.294 62.457C61.404 63.66 58.056 64.593 55.923 67.167C54.069 69.378 51.813 70.587 49.815 70.74C47.823 70.899 46.104 70.14 45.093 68.046L45.078 68.037C44.448 66.837 44.718 64.962 45.246 62.967C45.774 60.963 46.53 58.935 46.635 57.276C46.746 55.134 46.863 53.271 47.22 51.834C47.58 50.439 48.144 49.443 49.143 48.882L49.278 48.816V48.81ZM16.836 48.957H16.866C17.025 48.957 17.181 48.972 17.337 48.999C18.465 49.164 19.455 49.998 20.406 51.255L23.136 56.247L23.145 56.256C23.874 57.855 25.407 59.448 26.712 61.167C28.014 62.961 29.022 64.56 28.899 65.877V65.895C28.728 68.127 27.459 69.339 25.524 69.777C23.589 70.182 20.964 69.783 18.339 68.385C15.435 66.777 11.985 66.978 9.768 66.579C8.661 66.381 7.938 65.979 7.599 65.379C7.269 64.779 7.26 63.573 7.968 61.689V61.677L7.974 61.668C8.325 60.666 8.064 59.412 7.893 58.314C7.728 57.111 7.644 56.184 8.022 55.494C8.502 54.492 9.21 54.294 10.092 53.895C10.974 53.49 12.012 53.289 12.837 52.485H12.843V52.479C13.611 51.675 14.178 50.676 14.847 49.965C15.417 49.362 15.987 48.957 16.836 48.957ZM38.313 21.735C37.008 22.338 35.478 23.34 33.849 23.34C32.223 23.34 30.939 22.539 30.009 21.942C29.547 21.54 29.169 21.138 28.89 20.937C28.398 20.535 28.458 19.938 28.668 19.938C28.995 19.986 29.055 20.34 29.265 20.538C29.553 20.736 29.91 21.138 30.345 21.537C31.221 22.137 32.385 22.938 33.846 22.938C35.301 22.938 37.005 22.137 38.04 21.54C38.625 21.135 39.375 20.538 39.984 20.139C40.452 19.731 40.431 19.338 40.821 19.338C41.205 19.386 40.923 19.74 40.38 20.334C39.7146 20.8372 39.0237 21.3059 38.31 21.738L38.313 21.735ZM35.067 16.986V16.92C35.049 16.86 35.106 16.794 35.154 16.77C35.376 16.641 35.694 16.689 35.934 16.782C36.123 16.782 36.414 16.983 36.384 17.187C36.366 17.334 36.129 17.385 35.979 17.385C35.814 17.385 35.703 17.256 35.556 17.181C35.4 17.127 35.118 17.157 35.067 16.986ZM33.414 16.986C33.354 17.16 33.075 17.133 32.916 17.184C32.775 17.259 32.658 17.388 32.496 17.388C32.346 17.388 32.106 17.328 32.088 17.184C32.058 16.986 32.352 16.785 32.538 16.785C32.778 16.692 33.09 16.644 33.315 16.77C33.372 16.797 33.423 16.86 33.405 16.92V16.98H33.414V16.986Z" fill="#FCC624"/>
</g>
<defs>
<clipPath id="clip0_4_473">
<rect width="72" height="72" fill="white"/>
</clipPath>
</defs>
</svg>
