<svg width="72" height="72" viewBox="0 0 72 72" fill="none" xmlns="http://www.w3.org/2000/svg">
<g clip-path="url(#clip0_4_453)">
<path d="M51.579 28.665C47.787 11.925 38.823 6.423 37.86 4.32C37.02 3.138 36.27 1.458 35.655 0C35.547 1.485 35.49 2.055 34.086 3.552C31.917 5.25 20.772 14.598 19.866 33.612C19.02 51.348 32.676 61.917 34.53 63.264L34.74 63.414C35.1261 66.2693 35.4561 69.1318 35.73 72H37.173C37.515 68.904 38.025 65.832 38.703 62.79C39.954 61.902 40.515 61.401 41.253 60.711C44.7479 57.4779 47.5254 53.5473 49.4059 49.1734C51.2864 44.7995 52.228 40.0797 52.17 35.319C52.2 32.877 51.861 30.333 51.579 28.665ZM35.571 53.25C35.571 53.25 35.571 28.377 36.396 28.38C37.035 28.38 37.866 60.465 37.866 60.465C36.723 60.33 35.571 55.185 35.571 53.25Z" fill="#47A248"/>
</g>
<defs>
<clipPath id="clip0_4_453">
<rect width="72" height="72" fill="white"/>
</clipPath>
</defs>
</svg>
