<svg width="72" height="72" viewBox="0 0 72 72" fill="none" xmlns="http://www.w3.org/2000/svg">
<path d="M49.215 16.503C48.87 16.503 48.636 16.545 48.393 16.602V16.641H48.435C48.597 16.953 48.873 17.181 49.077 17.46C49.239 17.781 49.377 18.102 49.539 18.42L49.581 18.375C49.863 18.177 50.001 17.859 50.001 17.376C49.881 17.235 49.863 17.094 49.761 16.956C49.641 16.755 49.383 16.656 49.221 16.497L49.215 16.503ZM17.31 56.085H14.529C14.4508 51.6653 14.1805 47.2512 13.719 42.855H13.695L9.465 56.085H7.35L3.15 42.855H3.12C2.79148 47.2581 2.59639 51.6701 2.535 56.085H0C0.165 50.187 0.576 44.655 1.23 39.495H4.68L8.685 51.687H8.709L12.75 39.495H16.035C16.761 45.54 17.187 51.075 17.319 56.085H17.31ZM29.361 43.845C28.227 49.98 26.733 54.444 24.885 57.225C23.439 59.373 21.855 60.444 20.136 60.444C19.677 60.444 19.116 60.306 18.438 60.03V58.548C18.768 58.599 19.158 58.626 19.596 58.626C20.4 58.626 21.045 58.401 21.537 57.96C22.128 57.42 22.422 56.814 22.422 56.145C22.422 55.68 22.191 54.735 21.732 53.313L18.69 43.845H21.42L23.601 50.925C24.093 52.533 24.3 53.655 24.216 54.294C25.416 51.102 26.25 47.613 26.721 43.845H29.361ZM66.336 56.085H58.446V39.495H61.101V54.045H66.336V56.085ZM56.376 56.49L53.328 54.99C53.598 54.762 53.859 54.516 54.093 54.24C55.392 52.722 56.037 50.466 56.037 47.481C56.037 41.991 53.883 39.243 49.572 39.243C47.46 39.243 45.81 39.939 44.622 41.334C43.332 42.858 42.684 45.102 42.684 48.069C42.684 50.985 43.254 53.127 44.406 54.489C45.456 55.719 47.037 56.334 49.155 56.334C49.947 56.334 50.673 56.235 51.33 56.04L55.305 58.356L56.385 56.49H56.376ZM46.5 52.764C45.825 51.684 45.489 49.944 45.489 47.556C45.489 43.377 46.761 41.286 49.299 41.286C50.628 41.286 51.609 41.787 52.23 42.786C52.902 43.872 53.238 45.594 53.238 47.955C53.238 52.167 51.966 54.279 49.428 54.279C48.093 54.279 47.118 53.778 46.494 52.779L46.5 52.764ZM41.526 51.489C41.526 52.899 41.01 54.057 39.978 54.957C38.946 55.857 37.569 56.307 35.826 56.307C34.197 56.307 32.634 55.791 31.107 54.762L31.818 53.334C33.132 53.994 34.317 54.318 35.388 54.318C36.384 54.318 37.167 54.099 37.737 53.658C38.0219 53.4432 38.2519 53.1641 38.4083 52.8435C38.5648 52.5228 38.6431 52.1697 38.637 51.813C38.637 50.823 37.947 49.983 36.693 49.278C35.529 48.639 33.204 47.307 33.204 47.307C31.938 46.386 31.308 45.399 31.308 43.776C31.308 42.426 31.779 41.346 32.718 40.521C33.663 39.687 34.878 39.276 36.378 39.276C37.914 39.276 39.318 39.684 40.578 40.506L39.939 41.934C38.9322 41.4917 37.8466 41.2571 36.747 41.244C35.898 41.244 35.241 41.448 34.785 41.862C34.5536 42.0537 34.3671 42.2938 34.2385 42.5654C34.11 42.837 34.0425 43.1335 34.041 43.434C34.041 44.418 34.743 45.264 36.039 45.984C37.218 46.629 39.6 47.994 39.6 47.994C40.899 48.909 41.544 49.884 41.544 51.498L41.526 51.489ZM69.672 33.933C68.067 33.891 66.822 34.053 65.781 34.497C65.481 34.617 65.001 34.617 64.959 34.998C65.124 35.157 65.148 35.418 65.289 35.64C65.529 36.042 65.943 36.579 66.327 36.861C66.747 37.191 67.167 37.509 67.608 37.791C68.388 38.271 69.273 38.556 70.038 39.039C70.473 39.321 70.917 39.678 71.358 39.978C71.577 40.128 71.718 40.398 72 40.494V40.434C71.862 40.254 71.82 39.993 71.685 39.792C71.484 39.591 71.283 39.411 71.085 39.213C70.496 38.4368 69.7931 37.7541 69 37.188C68.358 36.75 66.954 36.138 66.69 35.403L66.651 35.361C67.089 35.322 67.611 35.163 68.031 35.043C68.712 34.863 69.336 34.902 70.041 34.725C70.359 34.644 70.68 34.545 71.001 34.443V34.263C70.641 33.903 70.371 33.414 69.999 33.078C68.9607 32.1704 67.8533 31.3449 66.687 30.609C66.057 30.207 65.259 29.949 64.596 29.607C64.356 29.487 63.954 29.427 63.816 29.226C63.456 28.788 63.246 28.206 62.991 27.684C62.4019 26.5413 61.8546 25.3775 61.35 24.195C60.99 23.409 60.771 22.626 60.33 21.906C58.26 18.495 56.019 16.428 52.572 14.406C51.831 13.986 50.943 13.806 50.004 13.584C49.503 13.56 49.002 13.524 48.504 13.503C48.174 13.362 47.856 12.981 47.574 12.798C46.434 12.078 43.482 10.518 42.642 12.582C42.102 13.884 43.443 15.168 43.908 15.828C44.253 16.287 44.688 16.812 44.928 17.328C45.069 17.676 45.108 18.033 45.249 18.396C45.567 19.278 45.87 20.262 46.29 21.087C46.509 21.507 46.749 21.948 47.031 22.326C47.193 22.545 47.469 22.647 47.532 23.007C47.25 23.415 47.232 24.009 47.07 24.507C46.35 26.778 46.632 29.586 47.652 31.257C47.973 31.755 48.738 32.859 49.761 32.436C50.661 32.076 50.463 30.936 50.721 29.931C50.781 29.691 50.742 29.532 50.865 29.37V29.415C51.147 29.979 51.429 30.516 51.687 31.08C52.305 32.064 53.385 33.084 54.288 33.765C54.768 34.125 55.149 34.749 55.749 34.971V34.911H55.704C55.575 34.737 55.404 34.653 55.242 34.512C54.8616 34.1396 54.5106 33.7384 54.192 33.312C53.3467 32.1571 52.5973 30.935 51.951 29.658C51.621 29.028 51.345 28.35 51.081 27.729C50.961 27.489 50.961 27.129 50.76 27.009C50.46 27.447 50.019 27.828 49.8 28.368C49.419 29.232 49.38 30.294 49.236 31.398C49.155 31.419 49.194 31.398 49.155 31.44C48.513 31.284 48.294 30.618 48.054 30.06C47.454 28.635 47.355 26.346 47.874 24.705C48.015 24.285 48.615 22.959 48.375 22.557C48.249 22.176 47.853 21.957 47.634 21.648C47.3523 21.2458 47.1111 20.8167 46.914 20.367C46.434 19.245 46.194 18.003 45.672 16.881C45.432 16.362 45.012 15.819 44.67 15.342C44.289 14.802 43.869 14.421 43.566 13.782C43.467 13.563 43.326 13.2 43.485 12.96C43.527 12.798 43.611 12.735 43.767 12.69C44.031 12.474 44.772 12.756 45.033 12.876C45.774 13.176 46.398 13.458 47.019 13.878C47.301 14.076 47.604 14.457 47.964 14.556H48.384C49.026 14.697 49.749 14.598 50.349 14.775C51.414 15.117 52.374 15.615 53.235 16.155C55.888 17.8497 58.0459 20.2157 59.49 23.013C59.73 23.475 59.835 23.898 60.054 24.378C60.474 25.368 60.993 26.367 61.419 27.324C61.839 28.269 62.244 29.232 62.847 30.015C63.147 30.435 64.353 30.654 64.893 30.873C65.292 31.053 65.913 31.218 66.273 31.437C66.963 31.857 67.635 32.337 68.283 32.799C68.613 33.027 69.612 33.528 69.672 33.933Z" fill="#4479A1"/>
</svg>
