<svg width="72" height="72" viewBox="0 0 72 72" fill="none" xmlns="http://www.w3.org/2000/svg">
<g clip-path="url(#clip0_4_447)">
<path d="M42.393 0.140999C41.874 0.140999 41.391 0.251999 40.944 0.401999C41.892 1.032 42.414 1.872 42.672 2.82C42.693 2.949 42.729 3.042 42.747 3.171C42.7693 3.28173 42.7823 3.39411 42.786 3.507C42.858 5.142 42.357 5.349 42.006 6.315C41.466 7.56 41.616 8.898 42.264 9.975C42.3233 10.1194 42.3978 10.2572 42.486 10.386C41.781 5.682 45.705 4.977 46.428 3.507C46.485 2.223 45.426 1.368 44.589 0.773999C43.9313 0.360686 43.1698 0.142246 42.393 0.143999V0.140999ZM48.306 1.2C48.234 1.629 48.288 1.518 48.27 1.74C48.252 1.89 48.252 2.076 48.234 2.223C48.195 2.373 48.159 2.523 48.102 2.67C48.066 2.82 48.012 2.97 47.952 3.117L47.751 3.543C47.691 3.618 47.658 3.693 47.601 3.768L47.49 3.933C47.4015 4.06031 47.3084 4.18439 47.211 4.305C47.1 4.419 47.007 4.548 46.875 4.641V4.659C46.764 4.752 46.653 4.863 46.521 4.959C46.131 5.256 45.687 5.478 45.276 5.757C45.147 5.847 45.015 5.925 44.904 6.036C44.7778 6.12477 44.6594 6.22413 44.55 6.333C44.421 6.444 44.328 6.555 44.217 6.687C44.124 6.798 44.013 6.927 43.938 7.059C43.8446 7.18462 43.7575 7.31477 43.677 7.449C43.602 7.599 43.548 7.728 43.473 7.875C43.416 8.025 43.362 8.154 43.323 8.304C43.2738 8.45721 43.2308 8.61234 43.194 8.769C43.176 8.844 43.176 8.937 43.158 9.009C43.137 9.084 43.137 9.159 43.119 9.234C43.119 9.384 43.101 9.549 43.101 9.699C43.101 9.81 43.101 9.921 43.119 10.032C43.119 10.182 43.137 10.332 43.176 10.497C43.194 10.647 43.23 10.797 43.266 10.947C43.326 11.094 43.362 11.241 43.416 11.391C43.455 11.481 43.509 11.577 43.548 11.652L39.27 9.996C38.547 9.792 37.839 9.606 37.113 9.438L35.943 9.159C34.827 8.937 33.693 8.769 32.559 8.658C32.52 8.658 32.502 8.64 32.466 8.64C30.5498 8.44805 28.6205 8.42295 26.7 8.565C25.566 8.64 24.432 8.787 23.298 8.973C22.4553 9.1182 21.6178 9.2923 20.787 9.495L19.95 9.717C19.674 9.828 19.41 9.957 19.152 10.071L18.537 10.35C18.501 10.368 18.465 10.368 18.447 10.386C18.258 10.479 18.093 10.554 17.925 10.647C17.6835 10.7536 17.4472 10.8717 17.217 11.001C17.088 11.055 16.959 11.13 16.845 11.187C16.7917 11.2201 16.7366 11.2501 16.68 11.277C16.512 11.373 16.344 11.466 16.194 11.559C16.0409 11.6436 15.8927 11.7368 15.75 11.838C15.618 11.928 15.489 12.003 15.378 12.096C15.36 12.117 15.339 12.117 15.321 12.135C15.21 12.21 15.081 12.303 14.967 12.396L14.931 12.432L14.652 12.654C14.616 12.675 14.577 12.711 14.541 12.729C14.448 12.804 14.355 12.897 14.262 12.969C14.244 13.008 14.205 13.029 14.187 13.044C14.076 13.158 13.965 13.251 13.854 13.362C13.833 13.362 13.833 13.38 13.815 13.398C13.6994 13.4991 13.5883 13.6052 13.482 13.716C13.461 13.734 13.461 13.752 13.443 13.752C13.3454 13.8476 13.2523 13.9477 13.164 14.052C13.128 14.088 13.074 14.124 13.035 14.16C12.9354 14.2779 12.8292 14.39 12.717 14.496C12.699 14.532 12.663 14.553 12.645 14.586C12.495 14.736 12.366 14.886 12.216 15.036L12.162 15.09C11.862 15.408 11.547 15.723 11.211 16.002C10.878 16.302 10.524 16.578 10.17 16.821C9.45923 17.3287 8.69214 17.7525 7.88401 18.084C7.49401 18.252 7.08301 18.402 6.67501 18.531C5.89501 18.699 5.09401 19.014 4.40701 19.071C4.25701 19.071 4.09201 19.107 3.94201 19.125L3.47701 19.236L3.03001 19.404C2.88001 19.461 2.73301 19.536 2.58601 19.608C2.45401 19.701 2.30701 19.776 2.17501 19.869C2.04264 19.9648 1.91824 20.0712 1.80301 20.187C1.67401 20.277 1.54201 20.409 1.43101 20.52C1.32001 20.649 1.20901 20.76 1.11601 20.892C1.02301 21.042 0.912005 21.171 0.837005 21.321C0.739289 21.4561 0.652035 21.5986 0.576005 21.747C0.501005 21.915 0.426005 22.065 0.372005 22.23C0.315005 22.38 0.261005 22.548 0.204005 22.713C0.168005 22.863 0.129005 23.013 0.114005 23.163C0.114005 23.178 0.0930054 23.199 0.0930054 23.217C0.0570054 23.385 0.0570054 23.607 0.0360054 23.718C0.0180054 23.85 5.37117e-06 23.958 5.37117e-06 24.09C-0.00344618 24.4135 0.072797 24.7329 0.222005 25.02V25.038C0.279005 25.149 0.354005 25.263 0.429005 25.374C0.501005 25.485 0.579005 25.596 0.669005 25.707C0.762005 25.8 0.873005 25.914 0.987005 26.007C1.09541 26.1157 1.21283 26.2151 1.33801 26.304C1.78501 26.694 1.89601 26.823 2.47201 27.12C2.56501 27.177 2.65801 27.213 2.77201 27.27C2.79001 27.27 2.80801 27.288 2.82601 27.288C2.82601 27.327 2.82601 27.345 2.84401 27.381C2.88743 27.6876 2.96802 27.9878 3.08401 28.275C3.14401 28.386 3.18001 28.497 3.23401 28.608C3.25501 28.647 3.27301 28.683 3.29401 28.701C3.36601 28.851 3.44101 28.98 3.51301 29.112L3.79201 29.502C3.88501 29.613 3.99901 29.742 4.11001 29.856C4.22101 29.967 4.33201 30.06 4.46401 30.171C4.46401 30.171 4.48201 30.189 4.50001 30.189C4.61101 30.282 4.72201 30.375 4.83601 30.45C4.96538 30.5408 5.10181 30.621 5.24401 30.69C5.37301 30.765 5.52301 30.84 5.67001 30.897C5.78988 30.9511 5.91438 30.9943 6.04201 31.026C6.06301 31.044 6.08101 31.044 6.11701 31.062C6.19201 31.083 6.28501 31.101 6.35701 31.119C6.30301 32.124 6.28501 33.069 6.43501 33.405C6.60001 33.777 7.41901 32.643 8.23501 31.341C8.12701 32.625 8.05201 34.131 8.23501 34.578C8.44201 35.043 9.55501 33.591 10.524 31.992C23.709 28.944 35.739 38.052 37.002 50.922C36.762 48.912 34.287 47.799 33.153 48.078C32.595 49.452 31.647 51.219 30.123 52.317C30.252 51.087 30.198 49.827 29.937 48.597C29.5206 50.3091 28.733 51.9089 27.63 53.283C25.866 53.412 24.099 52.557 23.169 51.273C23.094 51.219 23.076 51.108 23.019 51.033C22.965 50.904 22.908 50.772 22.869 50.643C22.815 50.5184 22.7777 50.3873 22.758 50.253C22.74 50.121 22.74 49.992 22.74 49.842V49.563C22.7622 49.4311 22.7933 49.3008 22.833 49.173C22.872 49.044 22.908 48.915 22.965 48.783C23.037 48.654 23.094 48.522 23.187 48.393C23.502 47.499 23.502 46.773 22.926 46.347C22.8141 46.274 22.6956 46.2117 22.572 46.161C22.5 46.143 22.407 46.107 22.332 46.086L22.182 46.032C22.0547 45.9908 21.9243 45.9597 21.792 45.939C21.6653 45.9019 21.534 45.8827 21.402 45.882C21.267 45.8608 21.1307 45.8488 20.994 45.846C20.901 45.846 20.808 45.864 20.715 45.864C20.576 45.8632 20.4376 45.8824 20.304 45.921C20.175 45.939 20.046 45.957 19.914 45.993C19.7813 46.0286 19.651 46.0727 19.524 46.125C19.395 46.179 19.284 46.236 19.152 46.293C19.041 46.347 18.93 46.422 18.798 46.479C14.466 49.305 17.052 55.923 20.007 57.84C18.891 58.044 17.757 58.284 17.442 58.527L17.403 58.563C18.204 59.046 19.041 59.457 19.914 59.811C21.105 60.201 22.368 60.552 22.926 60.702V60.72C24.4666 61.0364 26.042 61.1493 27.612 61.056C35.85 60.48 42.6 54.213 43.827 45.957L43.938 46.44C43.995 46.776 44.067 47.13 44.106 47.481V47.499C44.142 47.667 44.16 47.835 44.181 47.985V48.057C44.199 48.225 44.217 48.393 44.217 48.543C44.235 48.747 44.253 48.951 44.253 49.155V49.455C44.253 49.545 44.274 49.656 44.274 49.749C44.274 49.863 44.253 49.974 44.253 50.085V50.346C44.253 50.475 44.235 50.586 44.235 50.718C44.235 50.793 44.235 50.868 44.217 50.958C44.217 51.09 44.199 51.219 44.199 51.369C44.181 51.423 44.181 51.48 44.181 51.534L44.121 51.963C44.121 52.02 44.121 52.074 44.106 52.131C44.085 52.317 44.049 52.485 44.031 52.671V52.707L43.92 53.229V53.283L43.809 53.784C43.809 53.805 43.788 53.844 43.788 53.859C43.7538 54.0291 43.7107 54.1974 43.659 54.363V54.417C43.602 54.603 43.548 54.771 43.509 54.939C43.491 54.957 43.491 54.975 43.491 54.975L43.323 55.533C43.251 55.719 43.194 55.887 43.119 56.073C43.044 56.259 42.99 56.445 42.915 56.613C42.84 56.799 42.765 56.964 42.693 57.153H42.672C42.6 57.318 42.522 57.504 42.432 57.672C42.4164 57.7164 42.3973 57.7595 42.375 57.801C42.357 57.819 42.357 57.84 42.339 57.858C41.1092 60.3199 39.3193 62.4592 37.113 64.104C36.963 64.197 36.816 64.311 36.666 64.422C36.63 64.458 36.576 64.476 36.537 64.512C36.404 64.6103 36.268 64.7043 36.129 64.794L36.183 64.905H36.204L36.984 64.794H37.002C37.485 64.719 37.968 64.626 38.451 64.533C38.583 64.515 38.73 64.476 38.862 64.44L39.123 64.383C39.252 64.365 39.381 64.329 39.513 64.311C39.624 64.272 39.735 64.251 39.846 64.218C41.706 63.768 43.509 63.156 45.24 62.433C42.2515 66.5035 38.277 69.7471 33.69 71.859C35.832 71.709 37.968 71.358 40.032 70.761C47.5026 68.5646 53.8123 63.5229 57.603 56.721C56.8374 61.0268 55.1297 65.1101 52.602 68.679C54.4042 67.4903 56.0693 66.1059 57.567 64.551C61.7291 60.2058 64.4615 54.6908 65.397 48.747C66.027 51.687 66.213 54.717 65.937 57.708C79.359 38.985 67.05 19.572 61.899 14.46C61.881 14.421 61.863 14.403 61.863 14.367C61.845 14.385 61.845 14.385 61.845 14.403C61.845 14.385 61.845 14.385 61.824 14.367C61.824 14.589 61.806 14.811 61.788 15.036C61.7365 15.4525 61.6744 15.8676 61.602 16.281C61.512 16.689 61.398 17.1 61.287 17.511C61.155 17.901 61.008 18.309 60.837 18.699C60.667 19.0842 60.4819 19.4625 60.282 19.833C59.8669 20.5619 59.388 21.2526 58.851 21.897C58.572 22.23 58.275 22.527 57.975 22.827C57.7997 22.9873 57.6196 23.1424 57.435 23.292L57.009 23.664C56.6771 23.926 56.3294 24.1674 55.968 24.387C55.6126 24.6159 55.2462 24.8271 54.87 25.02C54.48 25.206 54.09 25.374 53.7 25.542C52.9057 25.8441 52.0838 26.0682 51.246 26.211C50.817 26.286 50.391 26.322 49.98 26.361C49.6834 26.382 49.3863 26.394 49.089 26.397C48.6661 26.3912 48.2437 26.3661 47.823 26.322C47.3983 26.2887 46.9763 26.2265 46.56 26.136C46.1383 26.0595 45.7223 25.9542 45.315 25.821H45.294C45.705 25.782 46.113 25.746 46.524 25.671C47.3613 25.5259 48.1829 25.3019 48.978 25.002C49.386 24.852 49.776 24.666 50.148 24.48C50.538 24.294 50.892 24.09 51.264 23.868C51.618 23.628 51.969 23.385 52.305 23.124C52.641 22.863 52.956 22.584 53.253 22.287C53.568 22.008 53.847 21.693 54.126 21.375C54.405 21.042 54.666 20.706 54.906 20.373C54.945 20.316 54.984 20.241 55.02 20.187C55.206 19.887 55.392 19.59 55.56 19.293C55.9699 18.553 56.3056 17.7742 56.562 16.968C56.694 16.578 56.787 16.17 56.88 15.759C56.955 15.333 57.03 14.925 57.066 14.514C57.102 14.088 57.141 13.659 57.141 13.251C57.141 12.951 57.12 12.654 57.102 12.357C57.0649 11.9405 57.0149 11.5253 56.952 11.112C56.8797 10.6929 56.7876 10.2774 56.676 9.867C56.544 9.477 56.415 9.066 56.265 8.676C56.115 8.286 55.932 7.896 55.746 7.524C55.539 7.152 55.335 6.78 55.113 6.426C54.8755 6.07845 54.6274 5.73829 54.369 5.406C54.09 5.088 53.811 4.77 53.514 4.455C53.3575 4.29539 53.1964 4.14033 53.031 3.99C52.191 3.339 51.321 2.727 50.445 2.169C50.3248 2.0996 50.2006 2.03749 50.073 1.983C49.5215 1.6453 48.9272 1.37997 48.306 1.2Z" fill="#E0234E"/>
</g>
<defs>
<clipPath id="clip0_4_447">
<rect width="72" height="72" fill="white"/>
</clipPath>
</defs>
</svg>
