<svg width="72" height="72" viewBox="0 0 72 72" fill="none" xmlns="http://www.w3.org/2000/svg">
<path d="M36 0L4.815 18V54L36 72L67.185 54V18L36 0ZM54 49.77C54 51.885 52.062 53.64 49.413 53.64C47.52 53.64 45.36 52.875 44.01 51.21L26.01 29.787V49.767C26.01 51.93 24.3 53.637 22.188 53.637H21.96C19.797 53.637 18.09 51.837 18.09 49.767V22.23C18.09 20.115 19.98 18.36 22.59 18.36C24.528 18.36 26.73 19.125 28.08 20.79L45.99 42.213V22.23C45.99 20.067 47.79 18.36 49.86 18.36H50.085C52.245 18.36 53.955 20.16 53.955 22.23V49.77H54Z" fill="#009639"/>
</svg>
