<svg width="72" height="72" viewBox="0 0 72 72" fill="none" xmlns="http://www.w3.org/2000/svg">
<g clip-path="url(#clip0_4_445)">
<path d="M35.994 72C35.031 72 34.071 71.748 33.228 71.259L24.42 66.048C23.106 65.313 23.748 65.052 24.18 64.899C25.935 64.29 26.289 64.149 28.164 63.087C28.359 62.976 28.617 63.018 28.818 63.138L35.586 67.155C35.832 67.29 36.177 67.29 36.402 67.155L62.787 51.927C63.033 51.786 63.189 51.504 63.189 51.213V20.763C63.189 20.466 63.03 20.187 62.778 20.037L36.405 4.821C36.162 4.68 35.838 4.68 35.592 4.821L9.22501 20.04C8.97001 20.187 8.80801 20.475 8.80801 20.763V51.213C8.80801 51.504 8.97001 51.78 9.22501 51.918L16.452 56.094C20.373 58.056 22.776 55.746 22.776 53.424V23.361C22.776 22.935 23.118 22.602 23.544 22.602H26.889C27.306 22.602 27.654 22.938 27.654 23.361V53.424C27.654 58.659 24.804 61.659 19.842 61.659C18.318 61.659 17.115 61.659 13.764 60.006L6.84 56.025C5.13 55.038 4.07401 53.19 4.07401 51.213V20.763C4.07401 18.786 5.133 16.938 6.84 15.954L33.225 0.707998C34.896 -0.237001 37.113 -0.237001 38.769 0.707998L65.151 15.954C66.861 16.941 67.923 18.786 67.923 20.763V51.213C67.923 53.19 66.861 55.032 65.151 56.025L38.769 71.259C37.929 71.748 36.972 72 35.994 72ZM57.297 41.979C57.297 36.279 53.445 34.761 45.336 33.69C37.143 32.607 36.309 32.046 36.309 30.129C36.309 28.545 37.014 26.43 43.083 26.43C48.504 26.43 50.502 27.597 51.324 31.251C51.396 31.596 51.711 31.848 52.065 31.848H55.488C55.701 31.848 55.902 31.755 56.046 31.605C56.19 31.443 56.268 31.236 56.247 31.017C55.716 24.723 51.534 21.789 43.083 21.789C35.559 21.789 31.071 24.963 31.071 30.288C31.071 36.063 35.535 37.659 42.756 38.373C51.396 39.219 52.065 40.482 52.065 42.18C52.065 45.129 49.698 46.386 44.139 46.386C37.158 46.386 35.622 44.634 35.106 41.16C35.046 40.788 34.728 40.515 34.347 40.515H30.936C30.513 40.515 30.174 40.851 30.174 41.274C30.174 45.72 32.592 51.018 44.139 51.018C52.503 51.021 57.297 47.73 57.297 41.979Z" fill="#339933"/>
</g>
<defs>
<clipPath id="clip0_4_445">
<rect width="72" height="72" fill="white"/>
</clipPath>
</defs>
</svg>
