<svg width="72" height="72" viewBox="0 0 72 72" fill="none" xmlns="http://www.w3.org/2000/svg">
<path d="M42.75 18.261C42.75 17.196 43.308 16.233 43.953 15.384C44.616 14.514 45 13.482 45 12.375C45 9.267 41.979 6.75 38.25 6.75C34.521 6.75 31.5 9.27 31.5 12.375C31.5 13.482 31.884 14.514 32.547 15.384C33.192 16.233 33.75 17.196 33.75 18.261C33.7513 18.5182 33.7009 18.7731 33.6018 19.0105C33.5026 19.2479 33.3568 19.4629 33.173 19.6429C32.9891 19.8228 32.771 19.9639 32.5315 20.0579C32.2921 20.1519 32.0362 20.1968 31.779 20.19C27.605 20.0698 23.4381 19.7695 19.29 19.29C19.848 24.129 20.169 29.04 20.235 34.011C20.2378 34.2717 20.1887 34.5304 20.0907 34.772C19.9927 35.0136 19.8476 35.2333 19.664 35.4183C19.4803 35.6034 19.2617 35.7501 19.0209 35.8499C18.78 35.9498 18.5217 36.0008 18.261 36C17.196 36 16.233 35.442 15.384 34.797C14.5241 34.1253 13.4661 33.7572 12.375 33.75C9.267 33.75 6.75 36.771 6.75 40.5C6.75 44.229 9.27 47.25 12.375 47.25C13.482 47.25 14.514 46.866 15.384 46.203C16.233 45.558 17.196 45 18.261 45C19.191 45 19.926 45.78 19.857 46.71C19.4838 51.7965 18.8409 56.8596 17.931 61.878C22.485 62.448 27.105 62.805 31.779 62.94C32.0362 62.9468 32.2921 62.9019 32.5315 62.8079C32.771 62.714 32.9891 62.5728 33.173 62.3929C33.3568 62.2129 33.5026 61.9979 33.6018 61.7605C33.7009 61.5231 33.7513 61.2682 33.75 61.011C33.75 59.946 33.192 58.983 32.547 58.134C31.8753 57.2741 31.5072 56.2161 31.5 55.125C31.5 52.02 34.524 49.5 38.25 49.5C41.979 49.5 45 52.02 45 55.125C45 56.232 44.616 57.264 43.953 58.134C43.308 58.983 42.753 59.946 42.753 61.011C42.753 62.01 43.584 62.808 44.583 62.751C50.0414 62.43 55.4772 61.799 60.864 60.861C61.6791 56.1757 62.2618 51.4529 62.61 46.71C62.6257 46.4908 62.596 46.2707 62.5226 46.0635C62.4493 45.8563 62.3339 45.6665 62.1838 45.5059C62.0337 45.3454 61.852 45.2176 61.6502 45.1305C61.4484 45.0435 61.2308 44.999 61.011 45C59.946 45 58.983 45.558 58.134 46.203C57.264 46.866 56.232 47.25 55.125 47.25C52.02 47.25 49.5 44.229 49.5 40.5C49.5 36.771 52.02 33.75 55.125 33.75C56.235 33.75 57.264 34.134 58.134 34.797C58.983 35.442 59.946 36 61.014 36C61.2747 36.0008 61.533 35.9498 61.7739 35.8499C62.0147 35.7501 62.2333 35.6034 62.417 35.4183C62.6006 35.2333 62.7457 35.0136 62.8437 34.772C62.9417 34.5304 62.9908 34.2717 62.988 34.011C62.9159 28.6346 62.5453 23.2663 61.878 17.931C56.22 18.957 50.448 19.653 44.58 19.998C44.3438 20.0111 44.1075 19.9757 43.8855 19.8941C43.6635 19.8125 43.4606 19.6863 43.2891 19.5233C43.1177 19.3603 42.9815 19.164 42.8888 18.9464C42.796 18.7288 42.7488 18.4975 42.75 18.261Z" stroke="#CA3E47" stroke-width="3" stroke-linecap="round" stroke-linejoin="round"/>
</svg>
