<svg width="72" height="72" viewBox="0 0 72 72" fill="none" xmlns="http://www.w3.org/2000/svg">
<g clip-path="url(#clip0_4_430)">
<path d="M42.75 0.54L45.45 1.14L47.64 1.92L49.41 2.82L50.76 3.78L51.78 4.8L52.53 5.82L53.01 6.81L53.31 7.71L53.43 8.49L53.49 9.09L53.46 9.48V25.5L53.31 27.39L52.92 29.04L52.29 30.42L51.51 31.56L50.61 32.49L49.62 33.24L48.57 33.81L47.52 34.23L46.53 34.53L45.63 34.74L44.85 34.86L44.22 34.92H26.31L24.24 35.07L22.47 35.49L20.97 36.15L19.74 36.96L18.75 37.92L17.94 38.97L17.34 40.05L16.89 41.16L16.59 42.21L16.38 43.17L16.26 43.98L16.2 44.61V53.79H9.51L8.88 53.7L8.04 53.49L7.08 53.13L6.03 52.59L4.95 51.81L3.87 50.73L2.82 49.35L1.86 47.58L1.02 45.39L0.39 42.75L-0.0300003 39.6L-0.18 35.91L-2.94894e-07 32.25L0.48 29.13L1.2 26.52L2.16 24.39L3.24 22.68L4.44 21.36L5.7 20.37L6.96 19.65L8.16 19.17L9.24 18.87L10.2 18.72L10.92 18.69H11.4L11.58 18.72H36.06V16.23H18.54L18.51 7.98L18.45 6.87L18.6 5.85L18.93 4.92L19.44 4.08L20.19 3.3L21.12 2.61L22.26 2.01L23.58 1.47L25.11 1.02L26.85 0.66L28.77 0.36L30.9 0.18L33.21 0.06L35.73 0L39.54 0.15L42.75 0.54ZM23.85 6.48L23.16 7.47L22.92 8.7L23.16 9.93L23.85 10.95L24.84 11.61L26.07 11.88L27.3 11.61L28.29 10.95L28.98 9.93L29.22 8.7L28.98 7.47L28.29 6.48L27.3 5.82L26.07 5.55L24.84 5.82L23.85 6.48ZM63.12 18.33L63.96 18.51L64.92 18.87L65.97 19.41L67.05 20.22L68.13 21.27L69.18 22.68L70.14 24.45L70.98 26.64L71.61 29.28L72.03 32.4L72.18 36.09L72 39.78L71.52 42.9L70.8 45.48L69.84 47.61L68.76 49.32L67.56 50.67L66.3 51.66L65.04 52.38L63.84 52.86L62.76 53.13L61.8 53.28L61.08 53.34L60.6 53.31H35.94V55.77H53.46L53.49 64.05L53.55 65.13L53.4 66.15L53.07 67.08L52.56 67.95L51.81 68.7L50.88 69.42L49.74 70.02L48.42 70.53L46.89 70.98L45.15 71.37L43.23 71.64L41.1 71.85L38.79 71.97L36.27 72L32.46 71.88L29.25 71.46L26.55 70.86L24.36 70.11L22.59 69.21L21.24 68.22L20.22 67.2L19.47 66.18L18.99 65.19L18.69 64.29L18.57 63.54L18.51 62.94L18.54 62.55V46.53L18.69 44.61L19.08 42.99L19.71 41.61L20.49 40.47L21.39 39.51L22.38 38.79L23.43 38.19L24.48 37.77L25.47 37.47L26.37 37.29L27.15 37.17L27.78 37.11L28.17 37.08H45.69L47.76 36.93L49.53 36.51L51.03 35.88L52.26 35.04L53.25 34.08L54.06 33.03L54.66 31.95L55.11 30.87L55.41 29.82L55.62 28.86L55.74 28.02L55.8 27.39V18.21H62.07L62.49 18.24L63.12 18.33ZM43.71 61.08L43.02 62.07L42.78 63.3L43.02 64.53L43.71 65.52L44.7 66.21L45.93 66.45L47.16 66.21L48.15 65.52L48.84 64.53L49.08 63.3L48.84 62.07L48.15 61.08L47.16 60.39L45.93 60.15L44.7 60.39L43.71 61.08Z" fill="#3776AB"/>
</g>
<defs>
<clipPath id="clip0_4_430">
<rect width="72" height="72" fill="white"/>
</clipPath>
</defs>
</svg>
