<svg width="72" height="72" viewBox="0 0 72 72" fill="none" xmlns="http://www.w3.org/2000/svg">
<g clip-path="url(#clip0_4_469)">
<path d="M69.1049 28.803H46.0739C45.6942 28.8054 45.3179 28.7324 44.9666 28.5882C44.6154 28.444 44.2963 28.2315 44.0278 27.963C43.7594 27.6946 43.5469 27.3755 43.4027 27.0243C43.2585 26.673 43.1855 26.2967 43.1879 25.917V2.886C43.1879 2.50785 43.1131 2.13343 42.9678 1.78429C42.8226 1.43515 42.6097 1.11819 42.3415 0.851631C42.0733 0.585076 41.755 0.374196 41.4049 0.231129C41.0549 0.0880614 40.68 0.0156301 40.3019 0.0180034H31.6799C31.3017 0.0156301 30.9269 0.0880614 30.5768 0.231129C30.2268 0.374196 29.9085 0.585076 29.6402 0.851631C29.372 1.11819 29.1592 1.43515 29.0139 1.78429C28.8686 2.13343 28.7939 2.50785 28.7939 2.886V25.92C28.7963 26.2997 28.7232 26.676 28.5791 27.0272C28.4349 27.3785 28.2224 27.6976 27.9539 27.966C27.6854 28.2345 27.3663 28.447 27.0151 28.5912C26.6639 28.7354 26.2875 28.8084 25.9079 28.806H17.2859C16.9065 28.808 16.5304 28.7347 16.1796 28.5903C15.8287 28.446 15.5099 28.2334 15.2418 27.965C14.9736 27.6965 14.7614 27.3776 14.6174 27.0266C14.4734 26.6755 14.4005 26.2994 14.4029 25.92V2.886C14.4053 2.50634 14.3322 2.12998 14.1881 1.77876C14.0439 1.42753 13.8314 1.10843 13.5629 0.839964C13.2944 0.571497 12.9753 0.359007 12.6241 0.214818C12.2729 0.0706297 11.8965 -0.00238695 11.5169 3.44239e-06H2.87688C2.49873 -4.00536e-06 2.12431 0.0747712 1.77517 0.220026C1.42603 0.365281 1.10906 0.578147 0.842504 0.846375C0.575949 1.1146 0.365069 1.4329 0.222002 1.78294C0.0789343 2.13298 0.0065031 2.50786 0.00887643 2.886V69.114C0.00648604 69.4937 0.0795027 69.87 0.223691 70.2212C0.36788 70.5725 0.58037 70.8916 0.848837 71.16C1.1173 71.4285 1.4364 71.641 1.78763 71.7852C2.13885 71.9294 2.51521 72.0024 2.89488 72H69.1049C69.4845 72.0024 69.8609 71.9294 70.2121 71.7852C70.5633 71.641 70.8824 71.4285 71.1509 71.16C71.4194 70.8916 71.6319 70.5725 71.7761 70.2212C71.9202 69.87 71.9933 69.4937 71.9909 69.114V31.74C72.0005 31.3558 71.9329 30.9736 71.7919 30.6161C71.651 30.2586 71.4397 29.9331 71.1705 29.6588C70.9013 29.3846 70.5797 29.1673 70.2249 29.0197C69.87 28.8722 69.4892 28.8005 69.1049 28.803ZM57.5249 53.259C57.5272 53.8266 57.4175 54.3892 57.2019 54.9143C56.9863 55.4394 56.6691 55.9168 56.2686 56.319C55.868 56.7212 55.392 57.0404 54.8678 57.2581C54.3436 57.4759 53.7815 57.588 53.2139 57.588H47.4419C46.8745 57.5876 46.3127 57.4752 45.7889 57.2573C45.265 57.0393 44.7893 56.7201 44.3891 56.3179C43.9889 55.9157 43.672 55.4385 43.4566 54.9136C43.2412 54.3887 43.1315 53.8264 43.1339 53.259V47.508C43.1315 46.9406 43.2412 46.3783 43.4566 45.8534C43.672 45.3285 43.9889 44.8513 44.3891 44.4491C44.7893 44.0469 45.265 43.7277 45.7889 43.5097C46.3127 43.2918 46.8745 43.1794 47.4419 43.179H53.2139C53.7815 43.179 54.3436 43.2911 54.8678 43.5089C55.392 43.7266 55.868 44.0458 56.2686 44.448C56.6691 44.8502 56.9863 45.3276 57.2019 45.8527C57.4175 46.3778 57.5272 46.9404 57.5249 47.508V53.259Z" fill="#FF6600"/>
</g>
<defs>
<clipPath id="clip0_4_469">
<rect width="72" height="72" fill="white"/>
</clipPath>
</defs>
</svg>
