<svg width="72" height="72" viewBox="0 0 72 72" fill="none" xmlns="http://www.w3.org/2000/svg">
<g clip-path="url(#clip0_4_471)">
<path d="M22.206 7.029C15.534 9.981 11.361 14.778 9.00601 18.27C6.45001 22.074 5.45401 25.227 5.45401 25.254C5.44801 25.362 5.46901 25.203 5.45401 25.311C4.71601 27.411 4.03501 30.705 4.03501 30.732C3.24001 34.764 3.60901 38.511 3.60901 38.568L3.69601 39.306C3.77398 38.2877 3.90616 37.2743 4.09201 36.27C4.14901 35.871 5.20201 30.222 9.17402 25.737C9.60001 25.083 14.199 19.038 22.659 19.038C24.477 19.038 26.379 19.32 28.281 19.887H28.338C28.452 19.917 30.948 20.826 31.857 21.279C32.709 21.705 34.215 22.359 34.242 22.359H34.302C42.447 26.334 49.488 27.609 49.545 27.639C51.561 27.981 53.379 28.149 54.996 28.149C58.233 28.149 60.561 27.441 61.782 26.079C62.493 25.299 62.703 24.402 62.661 23.637C62.718 20.682 60.306 17.505 58.26 15.375C56.8482 13.8886 55.2994 12.5386 53.634 11.343C47.502 6.801 40.944 4.503 34.074 4.503C27.033 4.53 22.263 6.999 22.206 7.029ZM44.463 15.006C45.315 15.006 45.996 15.687 45.996 16.536C45.9972 16.7378 45.9584 16.9378 45.8818 17.1245C45.8052 17.3112 45.6924 17.4809 45.5499 17.6237C45.4073 17.7665 45.2379 17.8797 45.0513 17.9566C44.8648 18.0336 44.6648 18.0728 44.463 18.072C44.2615 18.0728 44.0618 18.0337 43.8754 17.9569C43.6891 17.8802 43.5198 17.7673 43.3773 17.6248C43.2347 17.4823 43.1219 17.3129 43.0451 17.1266C42.9683 16.9402 42.9292 16.7405 42.93 16.539C42.93 15.687 43.611 15.006 44.463 15.006ZM24.648 9.186C24.873 9.186 25.017 9.243 25.074 9.243L34.755 12.252L34.386 13.017L29.757 11.571C28.113 11.061 26.397 10.518 24.789 10.011C24.759 10.011 24.705 9.981 24.648 9.981C24.588 9.981 24.504 9.981 24.447 10.011C23.568 10.236 21.156 11.088 20.445 12.366C20.35 12.5374 20.2909 12.7263 20.2713 12.9213C20.2517 13.1162 20.272 13.3131 20.331 13.5C20.331 13.53 20.841 15.12 22.119 16.764L28.539 16.452L32.823 16.254L32.397 17.133L21.75 17.643C20.16 15.714 19.536 13.785 19.536 13.785C18.543 10.662 24.249 9.21 24.249 9.21C24.384 9.207 24.519 9.192 24.648 9.18V9.186ZM58.317 56.427C64.848 53.589 67.629 48.675 67.629 48.675C73.734 40.359 71.661 31.584 71.661 31.584C67.773 40.044 64.221 42.372 64.221 42.372C73.791 27.81 64.281 19.008 64.281 19.008C68.169 27.3 63 37.404 63 37.404C58.656 46.548 52.494 49.812 52.494 49.812C59.364 51.09 64.419 46.461 64.419 46.461C54.567 57.108 43.893 56.598 43.893 56.598C48.378 61.623 55.107 61.197 55.107 61.197C46.305 63.267 38.043 60.345 31.257 54.696C29.982 53.646 28.761 52.506 27.627 51.288C27.195 50.838 26.787 50.358 26.376 49.896C26.235 55.149 31.713 60.033 31.713 60.033C24.843 57.192 21.693 51.033 21.693 51.033C21.693 51.033 17.064 43.14 20.415 34.14C23.736 25.254 33.672 23.262 33.927 23.205C33.174 22.854 31.995 22.329 31.485 22.104C30.606 21.678 28.05 20.739 28.05 20.739C26.3003 20.2095 24.484 19.9327 22.656 19.917C14.28 19.917 9.82501 26.247 9.82501 26.247C5.87701 30.678 4.94101 36.411 4.94101 36.411C3.83101 41.892 5.02501 47.655 5.02501 47.655C5.02501 47.655 5.13901 48.108 5.16901 48.306C6.07801 50.466 7.23901 52.596 8.60401 54.609C15.984 65.625 27.966 69.429 27.966 69.429C45.708 75.447 57.831 66.591 57.831 66.591C68.991 58.926 71.232 50.067 71.232 50.067C62.202 57.081 58.317 56.427 58.317 56.427ZM3.92101 44.844C3.43248 43.0924 3.07153 41.3078 2.84101 39.504C2.81101 39.21 2.76601 38.883 2.73001 38.598C2.73001 38.598 2.33101 34.737 3.18301 30.507C3.18301 30.507 3.21301 30.393 3.24301 30.222C3.35101 29.613 3.52201 29.001 3.63901 28.491C3.89401 27.381 4.26301 26.049 4.62901 24.969C4.62901 24.969 8.55001 12.108 21.807 6.234C21.807 6.234 26.379 3.819 33.276 3.648C32.79 3.168 32.229 2.661 31.746 2.343C28.506 0.183003 23.682 -0.524997 20.757 2.514C19.878 3.423 19.137 4.416 18.315 5.325C17.379 6.345 16.245 7.197 14.937 7.68C13.803 8.106 12.666 8.022 11.502 8.22C10.311 8.418 9.09001 8.844 8.12401 9.612C7.07401 10.464 6.64801 11.598 6.53401 12.903C6.42001 13.926 6.45001 14.976 6.39301 15.999C6.24901 19.008 5.28301 19.86 3.12601 21.534C2.21701 22.215 1.45201 23.124 0.885014 24.09C-0.818986 27.099 1.90501 30.222 2.04901 33.261C2.07901 33.885 2.01901 34.509 1.79401 35.106C1.56601 35.757 1.11001 36.186 0.744014 36.726C0.231014 37.434 -0.110986 38.286 0.0330144 39.165C0.174014 40.044 0.630014 40.869 1.05301 41.634C1.87801 42.999 2.90101 44.22 3.97801 45.384C4.01401 45.432 4.09201 45.504 4.14001 45.54L3.92101 44.844Z" fill="#B7178C"/>
</g>
<defs>
<clipPath id="clip0_4_471">
<rect width="72" height="72" fill="white"/>
</clipPath>
</defs>
</svg>
