<svg width="72" height="72" viewBox="0 0 72 72" fill="none" xmlns="http://www.w3.org/2000/svg">
<g clip-path="url(#clip0_4_436)">
<path d="M36 0C55.881 0 72 16.119 72 36C72 55.881 55.881 72 36 72C16.119 72 0 55.881 0 36C0 16.119 16.119 0 36 0ZM28.845 47.994C29.37 49.929 29.313 51.738 28.773 53.37L28.578 53.91C28.506 54.093 28.422 54.27 28.344 54.438C27.924 55.308 27.366 56.118 26.679 56.868C24.585 59.145 21.663 60.009 20.409 59.283C19.059 58.497 19.731 55.278 22.161 52.713C24.774 49.959 28.521 48.186 28.521 48.186V48.177L28.845 47.994ZM58.578 15.411C56.952 9.012 46.347 6.909 36.312 10.476C30.345 12.597 23.88 15.93 19.233 20.277C13.704 25.44 12.825 29.94 13.188 31.821C14.469 38.454 23.559 42.792 27.297 46.011V46.029C26.196 46.569 18.129 50.616 16.239 54.804C14.214 59.214 16.554 62.367 18.084 62.769C22.809 64.077 27.669 61.689 30.279 57.822C32.799 54.039 32.577 49.179 31.491 46.794C32.979 46.389 34.731 46.209 36.981 46.482C43.284 47.202 44.544 51.162 44.271 52.782C44.001 54.399 42.702 55.344 42.249 55.614C41.799 55.887 41.664 55.974 41.706 56.157C41.751 56.427 41.979 56.427 42.336 56.382C42.831 56.292 45.624 55.032 45.759 51.969C45.894 48.099 42.201 43.782 35.634 43.869C32.934 43.917 31.221 44.142 30.009 44.637C29.919 44.502 29.826 44.412 29.694 44.322C25.644 39.957 18.129 36.897 18.444 31.092C18.534 28.977 19.299 23.4 32.844 16.65C43.959 11.112 52.827 12.645 54.357 16.02C56.556 20.832 49.629 29.79 38.064 31.092C33.654 31.587 31.359 29.88 30.771 29.247C30.144 28.572 30.054 28.527 29.829 28.665C29.469 28.845 29.694 29.43 29.829 29.79C30.189 30.69 31.584 32.265 34.017 33.075C36.129 33.75 41.307 34.152 47.517 31.725C54.489 29.028 59.934 21.51 58.359 15.21L58.578 15.411Z" fill="#CC6699"/>
</g>
<defs>
<clipPath id="clip0_4_436">
<rect width="72" height="72" fill="white"/>
</clipPath>
</defs>
</svg>
