<svg width="72" height="72" viewBox="0 0 72 72" fill="none" xmlns="http://www.w3.org/2000/svg">
<g clip-path="url(#clip0_4_428)">
<path d="M3.375 0C1.506 0 0 1.506 0 3.375V68.625C0 70.494 1.506 72 3.375 72H68.625C70.494 72 72 70.494 72 68.625V3.375C72 1.506 70.494 0 68.625 0H3.375ZM55.464 29.25C57.3 29.25 58.926 29.361 60.345 29.583C61.6834 29.7835 62.9967 30.1254 64.263 30.603V37.977C63.6552 37.5566 63.0094 37.1941 62.334 36.894C61.6375 36.5806 60.9185 36.3199 60.183 36.114C58.7898 35.7258 57.3513 35.524 55.905 35.514C55.005 35.514 54.186 35.598 53.448 35.772C52.7902 35.9127 52.1593 36.1578 51.579 36.498C51.069 36.81 50.679 37.185 50.4 37.62C50.1194 38.0584 49.9734 38.5695 49.98 39.09C49.98 39.678 50.139 40.209 50.448 40.677C50.76 41.145 51.204 41.589 51.777 42.009C52.35 42.429 53.046 42.837 53.865 43.239C54.684 43.644 55.611 44.061 56.643 44.487C58.053 45.078 59.319 45.708 60.441 46.371C61.563 47.037 62.526 47.79 63.33 48.63C64.134 49.467 64.746 50.424 65.172 51.501C65.598 52.578 65.814 53.829 65.814 55.26C65.814 57.231 65.439 58.89 64.695 60.228C63.9681 61.5476 62.9249 62.6661 61.659 63.483C60.2946 64.3482 58.7823 64.9543 57.198 65.271C55.5 65.631 53.709 65.811 51.828 65.811C49.9767 65.8191 48.1287 65.6544 46.308 65.319C44.7328 65.0466 43.2051 64.5484 41.772 63.84V55.95C44.4833 58.2574 47.9228 59.5324 51.483 59.55C52.482 59.55 53.355 59.46 54.099 59.28C54.846 59.1 55.467 58.848 55.968 58.53C56.466 58.206 56.838 57.828 57.087 57.39C57.3622 56.88 57.4874 56.3026 57.4481 55.7244C57.4088 55.1463 57.2067 54.591 56.865 54.123C56.4193 53.5332 55.8741 53.0256 55.254 52.623C54.485 52.1132 53.6752 51.6677 52.833 51.291C51.8347 50.8351 50.8275 50.399 49.812 49.983C47.058 48.834 45.006 47.427 43.653 45.768C42.303 44.109 41.625 42.102 41.625 39.753C41.625 37.911 41.994 36.33 42.732 35.007C43.47 33.684 44.472 32.595 45.744 31.74C47.0894 30.8524 48.583 30.2133 50.154 29.853C51.8939 29.4428 53.6764 29.2404 55.464 29.25ZM10.125 29.814H38.814V36.312H28.518V65.25H20.367V36.312H10.125V29.814Z" fill="#3178C6"/>
</g>
<defs>
<clipPath id="clip0_4_428">
<rect width="72" height="72" fill="white"/>
</clipPath>
</defs>
</svg>
