<svg width="72" height="72" viewBox="0 0 72 72" fill="none" xmlns="http://www.w3.org/2000/svg">
<g clip-path="url(#clip0_4_457)">
<path d="M69.45 7.761L54.63 0.630002C53.7925 0.226671 52.8502 0.0937381 51.9338 0.249612C51.0174 0.405486 50.1721 0.842453 49.515 1.5L21.135 27.39L8.77499 18.006C8.21736 17.583 7.52929 17.3686 6.8301 17.3998C6.1309 17.4311 5.46469 17.706 4.94699 18.177L0.980994 21.783C0.671935 22.064 0.424948 22.4063 0.255844 22.7882C0.0867395 23.1702 -0.00075451 23.5832 -0.00103691 24.0008C-0.00131931 24.4185 0.0856161 24.8316 0.254204 25.2138C0.422791 25.5959 0.669315 25.9386 0.977994 26.22L11.697 36L0.977994 45.78C0.669315 46.0614 0.422791 46.4041 0.254204 46.7862C0.0856161 47.1684 -0.00131931 47.5815 -0.00103691 47.9992C-0.00075451 48.4168 0.0867395 48.8298 0.255844 49.2118C0.424948 49.5937 0.671935 49.9361 0.980994 50.217L4.94999 53.82C5.46769 54.291 6.1339 54.5659 6.8331 54.5972C7.53229 54.6284 8.22036 54.414 8.77799 53.991L21.138 44.607L49.518 70.497C50.1744 71.1547 51.0192 71.5918 51.9352 71.7477C52.8512 71.9036 53.793 71.7705 54.63 71.367L69.456 64.236C70.2188 63.8679 70.8621 63.2919 71.3122 62.5744C71.7622 61.8569 72.0006 61.027 72 60.18V11.817C72.0001 10.9694 71.7608 10.139 71.3096 9.42144C70.8585 8.70387 70.2139 8.1283 69.45 7.761ZM54.012 52.344L32.478 36L54.012 19.656V52.344Z" fill="#007ACC"/>
</g>
<defs>
<clipPath id="clip0_4_457">
<rect width="72" height="72" fill="white"/>
</clipPath>
</defs>
</svg>
